<svg xmlns="http://www.w3.org/2000/svg" viewBox="0 0 1200 600" width="1200" height="600">
  <defs>
    <linearGradient id="bg" x1="0" y1="0" x2="1" y2="1">
      <stop offset="0%" stop-color="#1A1A1A"/>
      <stop offset="100%" stop-color="#111111"/>
    </linearGradient>
  </defs>

  <rect width="1200" height="600" fill="url(#bg)"/>
  <pattern id="grid" width="40" height="40" patternUnits="userSpaceOnUse">
    <path d="M 40 0 L 0 0 0 40" fill="none" stroke="#B89778" stroke-width="0.1" opacity="0.12"/>
  </pattern>
  <rect width="1200" height="600" fill="url(#grid)"/>

  <!-- Corner brackets -->
  <path d="M 36 80 L 36 36 L 80 36" fill="none" stroke="#B89778" stroke-width="2.5" stroke-linecap="square"/>
  <path d="M 1120 36 L 1164 36 L 1164 80" fill="none" stroke="#B89778" stroke-width="2.5" stroke-linecap="square"/>
  <path d="M 36 520 L 36 564 L 80 564" fill="none" stroke="#B89778" stroke-width="2.5" stroke-linecap="square"/>
  <path d="M 1120 564 L 1164 564 L 1164 520" fill="none" stroke="#B89778" stroke-width="2.5" stroke-linecap="square"/>

  <!-- Header -->
  <text x="600" y="88" font-family="'Cormorant Garamond', Georgia, serif" font-size="32" font-weight="700" fill="#FFFFFF" text-anchor="middle">6 Arabic Calligraphy Scripts We Work With</text>
  <text x="600" y="118" font-family="Inter, sans-serif" font-size="14" fill="#8E9196" text-anchor="middle">Each script has a distinct character — choosing the right one makes the piece</text>
  <line x1="380" y1="133" x2="820" y2="133" stroke="#B89778" stroke-width="1" opacity="0.5"/>

  <!-- 6 script cards in 2 rows of 3 -->
  <!-- Row 1 -->

  <!-- Thuluth -->
  <rect x="60" y="152" width="340" height="166" rx="8" fill="#131313" stroke="#B89778" stroke-width="1" stroke-opacity="0.4"/>
  <text x="230" y="185" font-family="'Cormorant Garamond', Georgia, serif" font-size="20" font-weight="700" fill="#B89778" text-anchor="middle">Thuluth</text>
  <line x1="80" y1="193" x2="380" y2="193" stroke="#B89778" stroke-width="0.5" opacity="0.3"/>
  <!-- Arabic-like decorative lines to suggest script -->
  <path d="M 100 220 Q 140 205 180 220 Q 220 235 260 215 Q 300 198 350 220" fill="none" stroke="#B89778" stroke-width="2.5" stroke-linecap="round"/>
  <path d="M 120 240 Q 160 228 200 238 Q 240 248 280 235" fill="none" stroke="#B89778" stroke-width="1.5" stroke-linecap="round" opacity="0.6"/>
  <path d="M 140 252 L 155 248 L 165 256 L 175 244" fill="none" stroke="#B89778" stroke-width="1.5" stroke-linecap="round" opacity="0.4"/>
  <text x="230" y="280" font-family="Inter, sans-serif" font-size="12" fill="#8E9196" text-anchor="middle">Dramatic · sweeping · tall</text>
  <text x="230" y="298" font-family="Inter, sans-serif" font-size="11" fill="#D4CFC5" text-anchor="middle" font-style="italic">Mosque walls · Quranic art</text>
  <!-- Best for badge -->
  <rect x="90" y="306" width="280" height="24" rx="12" fill="#1A1410" stroke="#B89778" stroke-width="0.8"/>
  <text x="230" y="322" font-family="Inter, sans-serif" font-size="11" fill="#B89778" text-anchor="middle">Best for: Allah, Ayat al-Kursi pendants</text>

  <!-- Naskh -->
  <rect x="430" y="152" width="340" height="166" rx="8" fill="#131313" stroke="#8E9196" stroke-width="1" stroke-opacity="0.4"/>
  <text x="600" y="185" font-family="'Cormorant Garamond', Georgia, serif" font-size="20" font-weight="700" fill="#A3A7AC" text-anchor="middle">Naskh</text>
  <line x1="450" y1="193" x2="750" y2="193" stroke="#8E9196" stroke-width="0.5" opacity="0.3"/>
  <path d="M 470 220 Q 510 215 545 222 Q 580 229 620 218 Q 655 210 700 220" fill="none" stroke="#A3A7AC" stroke-width="2" stroke-linecap="round"/>
  <path d="M 490 238 Q 530 234 565 240 Q 600 246 635 237" fill="none" stroke="#A3A7AC" stroke-width="1.5" stroke-linecap="round" opacity="0.6"/>
  <path d="M 510 255 L 524 251 L 534 258" fill="none" stroke="#A3A7AC" stroke-width="1.5" stroke-linecap="round" opacity="0.4"/>
  <text x="600" y="280" font-family="Inter, sans-serif" font-size="12" fill="#8E9196" text-anchor="middle">Clean · readable · approachable</text>
  <text x="600" y="298" font-family="Inter, sans-serif" font-size="11" fill="#D4CFC5" text-anchor="middle" font-style="italic">Printed books · modern Arabic</text>
  <rect x="460" y="306" width="280" height="24" rx="12" fill="#1A1A1A" stroke="#8E9196" stroke-width="0.8"/>
  <text x="600" y="322" font-family="Inter, sans-serif" font-size="11" fill="#A3A7AC" text-anchor="middle">Best for: everyday name pendants</text>

  <!-- Diwani -->
  <rect x="800" y="152" width="340" height="166" rx="8" fill="#131313" stroke="#B89778" stroke-width="1" stroke-opacity="0.4"/>
  <text x="970" y="185" font-family="'Cormorant Garamond', Georgia, serif" font-size="20" font-weight="700" fill="#B89778" text-anchor="middle">Diwani</text>
  <line x1="820" y1="193" x2="1120" y2="193" stroke="#B89778" stroke-width="0.5" opacity="0.3"/>
  <path d="M 830 215 Q 880 200 920 218 Q 960 238 1000 210 Q 1040 190 1090 218" fill="none" stroke="#B89778" stroke-width="2.5" stroke-linecap="round"/>
  <path d="M 850 240 Q 890 226 930 242 Q 970 258 1010 238 Q 1050 220 1080 240" fill="none" stroke="#B89778" stroke-width="1.5" stroke-linecap="round" opacity="0.7"/>
  <path d="M 870 258 Q 900 248 930 260 L 960 256" fill="none" stroke="#B89778" stroke-width="1.5" stroke-linecap="round" opacity="0.4"/>
  <text x="970" y="280" font-family="Inter, sans-serif" font-size="12" fill="#8E9196" text-anchor="middle">Flowing · ornate · curled</text>
  <text x="970" y="298" font-family="Inter, sans-serif" font-size="11" fill="#D4CFC5" text-anchor="middle" font-style="italic">Ottoman court script</text>
  <rect x="830" y="306" width="280" height="24" rx="12" fill="#1A1410" stroke="#B89778" stroke-width="0.8"/>
  <text x="970" y="322" font-family="Inter, sans-serif" font-size="11" fill="#B89778" text-anchor="middle">Best for: wedding engravings, names</text>

  <!-- Row 2 -->

  <!-- Kufic -->
  <rect x="60" y="336" width="340" height="166" rx="8" fill="#131313" stroke="#8E9196" stroke-width="1" stroke-opacity="0.3"/>
  <text x="230" y="369" font-family="'Cormorant Garamond', Georgia, serif" font-size="20" font-weight="700" fill="#A3A7AC" text-anchor="middle">Kufic</text>
  <line x1="80" y1="377" x2="380" y2="377" stroke="#8E9196" stroke-width="0.5" opacity="0.3"/>
  <!-- Geometric angular paths -->
  <path d="M 110 400 L 140 400 L 140 420 L 170 420 L 170 400 L 200 400 L 200 430 L 230 430 L 230 400 L 260 400 L 260 415 L 290 415 L 290 400 L 320 400 L 340 400" fill="none" stroke="#A3A7AC" stroke-width="2" stroke-linecap="square"/>
  <path d="M 120 435 L 150 435 L 150 448 L 180 448 L 180 435 L 220 435 L 220 445 L 260 445" fill="none" stroke="#A3A7AC" stroke-width="1.5" stroke-linecap="square" opacity="0.5"/>
  <text x="230" y="468" font-family="Inter, sans-serif" font-size="12" fill="#8E9196" text-anchor="middle">Angular · geometric · architectural</text>
  <text x="230" y="486" font-family="Inter, sans-serif" font-size="11" fill="#D4CFC5" text-anchor="middle" font-style="italic">Ancient script · bold statements</text>
  <rect x="90" y="494" width="280" height="24" rx="12" fill="#1A1A1A" stroke="#8E9196" stroke-width="0.8"/>
  <text x="230" y="510" font-family="Inter, sans-serif" font-size="11" fill="#A3A7AC" text-anchor="middle">Best for: bold contemporary pieces</text>

  <!-- Ruqa'a -->
  <rect x="430" y="336" width="340" height="166" rx="8" fill="#131313" stroke="#8E9196" stroke-width="1" stroke-opacity="0.3"/>
  <text x="600" y="369" font-family="'Cormorant Garamond', Georgia, serif" font-size="20" font-weight="700" fill="#A3A7AC" text-anchor="middle">Ruqaʿa</text>
  <line x1="450" y1="377" x2="750" y2="377" stroke="#8E9196" stroke-width="0.5" opacity="0.3"/>
  <path d="M 470 408 Q 500 402 530 410 Q 555 418 580 405 Q 610 393 650 410 Q 680 425 710 408" fill="none" stroke="#A3A7AC" stroke-width="1.8" stroke-linecap="round"/>
  <path d="M 480 428 Q 515 422 548 432 Q 580 442 612 428 Q 640 416 670 430" fill="none" stroke="#A3A7AC" stroke-width="1.5" stroke-linecap="round" opacity="0.6"/>
  <path d="M 490 448 Q 515 442 540 448 L 558 444" fill="none" stroke="#A3A7AC" stroke-width="1.5" stroke-linecap="round" opacity="0.4"/>
  <text x="600" y="468" font-family="Inter, sans-serif" font-size="12" fill="#8E9196" text-anchor="middle">Informal · fluid · everyday</text>
  <text x="600" y="486" font-family="Inter, sans-serif" font-size="11" fill="#D4CFC5" text-anchor="middle" font-style="italic">Handwriting-style script</text>
  <rect x="460" y="494" width="280" height="24" rx="12" fill="#1A1A1A" stroke="#8E9196" stroke-width="0.8"/>
  <text x="600" y="510" font-family="Inter, sans-serif" font-size="11" fill="#A3A7AC" text-anchor="middle">Best for: family handwriting pieces</text>

  <!-- Modern / Contemporary -->
  <rect x="800" y="336" width="340" height="166" rx="8" fill="#1A1410" stroke="#B89778" stroke-width="1.2" stroke-opacity="0.6"/>
  <text x="970" y="369" font-family="'Cormorant Garamond', Georgia, serif" font-size="20" font-weight="700" fill="#B89778" text-anchor="middle">Modern Script</text>
  <line x1="820" y1="377" x2="1120" y2="377" stroke="#B89778" stroke-width="0.5" opacity="0.3"/>
  <path d="M 840 408 Q 880 398 915 412 Q 945 425 975 408 Q 1010 392 1055 412 Q 1085 428 1110 408" fill="none" stroke="#B89778" stroke-width="2" stroke-linecap="round"/>
  <path d="M 855 432 Q 895 422 930 438 Q 965 454 1000 435 Q 1030 420 1060 436" fill="none" stroke="#B89778" stroke-width="1.5" stroke-linecap="round" opacity="0.7"/>
  <text x="970" y="468" font-family="Inter, sans-serif" font-size="12" fill="#8E9196" text-anchor="middle">Rounded · friendly · contemporary</text>
  <text x="970" y="486" font-family="Inter, sans-serif" font-size="11" fill="#D4CFC5" text-anchor="middle" font-style="italic">Most popular on social media</text>
  <rect x="830" y="494" width="280" height="24" rx="12" fill="#1A1410" stroke="#B89778" stroke-width="0.8"/>
  <text x="970" y="510" font-family="Inter, sans-serif" font-size="11" fill="#B89778" text-anchor="middle">Best for: casual name pendants</text>

  <!-- Footer -->
  <rect x="0" y="570" width="1200" height="30" fill="#0D0B0A"/>
  <line x1="0" y1="570" x2="1200" y2="570" stroke="#B89778" stroke-width="0.8" opacity="0.5"/>
  <text x="600" y="589" font-family="Inter, sans-serif" font-size="11" fill="#8E9196" text-anchor="middle" letter-spacing="1.5">AL-ASALI CUSTOM JEWELRY  ·  alasalicustomjewelry.ca  ·  TORONTO, CANADA</text>
</svg>
