<svg xmlns="http://www.w3.org/2000/svg" viewBox="0 0 1200 600" width="1200" height="600">
  <defs>
    <linearGradient id="bg" x1="0" y1="0" x2="1" y2="1">
      <stop offset="0%" stop-color="#111111"/>
      <stop offset="100%" stop-color="#1A1A1A"/>
    </linearGradient>
  </defs>

  <rect width="1200" height="600" fill="url(#bg)"/>
  <pattern id="grid" width="40" height="40" patternUnits="userSpaceOnUse">
    <path d="M 40 0 L 0 0 0 40" fill="none" stroke="#B89778" stroke-width="0.1" opacity="0.12"/>
  </pattern>
  <rect width="1200" height="600" fill="url(#grid)"/>

  <!-- Corner brackets -->
  <path d="M 36 80 L 36 36 L 80 36" fill="none" stroke="#B89778" stroke-width="2.5" stroke-linecap="square"/>
  <path d="M 1120 36 L 1164 36 L 1164 80" fill="none" stroke="#B89778" stroke-width="2.5" stroke-linecap="square"/>
  <path d="M 36 520 L 36 564 L 80 564" fill="none" stroke="#B89778" stroke-width="2.5" stroke-linecap="square"/>
  <path d="M 1120 564 L 1164 564 L 1164 520" fill="none" stroke="#B89778" stroke-width="2.5" stroke-linecap="square"/>

  <!-- Header -->
  <text x="600" y="88" font-family="'Cormorant Garamond', Georgia, serif" font-size="32" font-weight="700" fill="#FFFFFF" text-anchor="middle">VS vs VVS Diamonds in Grillz — Is It Worth It?</text>
  <text x="600" y="118" font-family="Inter, sans-serif" font-size="14" fill="#8E9196" text-anchor="middle">Side-by-side comparison · Toronto 2026 pricing</text>
  <line x1="380" y1="133" x2="820" y2="133" stroke="#B89778" stroke-width="1" opacity="0.5"/>

  <!-- VS column -->
  <rect x="80" y="150" width="490" height="360" rx="8" fill="#131313" stroke="#8E9196" stroke-width="1.5"/>
  <rect x="80" y="150" width="490" height="56" rx="8" fill="#1E1E1E"/>
  <rect x="80" y="186" width="490" height="20" fill="#1E1E1E"/>
  <text x="325" y="187" font-family="Inter, sans-serif" font-size="22" font-weight="700" fill="#A3A7AC" text-anchor="middle">VS Clarity</text>
  <text x="325" y="205" font-family="Inter, sans-serif" font-size="13" fill="#8E9196" text-anchor="middle">Very Slightly Included</text>

  <!-- VS details -->
  <text x="120" y="244" font-family="Inter, sans-serif" font-size="13" fill="#8E9196">Inclusions visible:</text>
  <text x="410" y="244" font-family="Inter, sans-serif" font-size="13" fill="#D4CFC5" text-anchor="middle">Under 10× loupe only</text>

  <line x1="100" y1="254" x2="550" y2="254" stroke="#2C2C2C" stroke-width="1"/>

  <text x="120" y="282" font-family="Inter, sans-serif" font-size="13" fill="#8E9196">Face-up appearance:</text>
  <text x="410" y="282" font-family="Inter, sans-serif" font-size="13" fill="#D4CFC5" text-anchor="middle">Eye-clean, great sparkle</text>

  <line x1="100" y1="292" x2="550" y2="292" stroke="#2C2C2C" stroke-width="1"/>

  <text x="120" y="320" font-family="Inter, sans-serif" font-size="13" fill="#8E9196">Price vs plain gold:</text>
  <text x="410" y="320" font-family="Inter, sans-serif" font-size="13" fill="#D4CFC5" text-anchor="middle">+30–40%</text>

  <line x1="100" y1="330" x2="550" y2="330" stroke="#2C2C2C" stroke-width="1"/>

  <text x="120" y="358" font-family="Inter, sans-serif" font-size="13" fill="#8E9196">Top 6 price:</text>
  <text x="410" y="358" font-family="Inter, sans-serif" font-size="16" font-weight="700" fill="#A3A7AC" text-anchor="middle">$4,500</text>

  <line x1="100" y1="368" x2="550" y2="368" stroke="#2C2C2C" stroke-width="1"/>

  <text x="120" y="396" font-family="Inter, sans-serif" font-size="13" fill="#8E9196">Full Set (12 teeth):</text>
  <text x="410" y="396" font-family="Inter, sans-serif" font-size="16" font-weight="700" fill="#A3A7AC" text-anchor="middle">$9,500</text>

  <line x1="100" y1="406" x2="550" y2="406" stroke="#2C2C2C" stroke-width="1"/>

  <text x="120" y="434" font-family="Inter, sans-serif" font-size="13" fill="#8E9196">Best for:</text>
  <text x="410" y="434" font-family="Inter, sans-serif" font-size="13" fill="#D4CFC5" text-anchor="middle">Top 6 or single tooth</text>

  <line x1="100" y1="444" x2="550" y2="444" stroke="#2C2C2C" stroke-width="1"/>

  <text x="120" y="472" font-family="Inter, sans-serif" font-size="13" fill="#8E9196">Verdict:</text>
  <rect x="330" y="455" width="170" height="28" rx="14" fill="#2C2C2C"/>
  <text x="415" y="474" font-family="Inter, sans-serif" font-size="13" font-weight="600" fill="#D4CFC5" text-anchor="middle">Best value pick</text>

  <!-- VVS column -->
  <rect x="630" y="150" width="490" height="360" rx="8" fill="#1A1410" stroke="#B89778" stroke-width="1.5"/>
  <rect x="630" y="150" width="490" height="56" rx="8" fill="#221A10"/>
  <rect x="630" y="186" width="490" height="20" fill="#221A10"/>
  <text x="875" y="187" font-family="Inter, sans-serif" font-size="22" font-weight="700" fill="#B89778" text-anchor="middle">VVS Clarity</text>
  <text x="875" y="205" font-family="Inter, sans-serif" font-size="13" fill="#8E9196" text-anchor="middle">Very, Very Slightly Included</text>

  <!-- VVS details -->
  <text x="670" y="244" font-family="Inter, sans-serif" font-size="13" fill="#8E9196">Inclusions visible:</text>
  <text x="960" y="244" font-family="Inter, sans-serif" font-size="13" fill="#D4CFC5" text-anchor="middle">Barely under expert loupe</text>

  <line x1="650" y1="254" x2="1100" y2="254" stroke="#2C2C2C" stroke-width="1"/>

  <text x="670" y="282" font-family="Inter, sans-serif" font-size="13" fill="#8E9196">Face-up appearance:</text>
  <text x="960" y="282" font-family="Inter, sans-serif" font-size="13" fill="#D4CFC5" text-anchor="middle">Noticeably brighter in direct light</text>

  <line x1="650" y1="292" x2="1100" y2="292" stroke="#2C2C2C" stroke-width="1"/>

  <text x="670" y="320" font-family="Inter, sans-serif" font-size="13" fill="#8E9196">Price vs plain gold:</text>
  <text x="960" y="320" font-family="Inter, sans-serif" font-size="13" fill="#B89778" text-anchor="middle">+60–80%</text>

  <line x1="650" y1="330" x2="1100" y2="330" stroke="#2C2C2C" stroke-width="1"/>

  <text x="670" y="358" font-family="Inter, sans-serif" font-size="13" fill="#8E9196">Top 6 price:</text>
  <text x="960" y="358" font-family="Inter, sans-serif" font-size="16" font-weight="700" fill="#B89778" text-anchor="middle">$6,500</text>

  <line x1="650" y1="368" x2="1100" y2="368" stroke="#2C2C2C" stroke-width="1"/>

  <text x="670" y="396" font-family="Inter, sans-serif" font-size="13" fill="#8E9196">Full Set (12 teeth):</text>
  <text x="960" y="396" font-family="Inter, sans-serif" font-size="16" font-weight="700" fill="#B89778" text-anchor="middle">$14,000</text>

  <line x1="650" y1="406" x2="1100" y2="406" stroke="#2C2C2C" stroke-width="1"/>

  <text x="670" y="434" font-family="Inter, sans-serif" font-size="13" fill="#8E9196">Best for:</text>
  <text x="960" y="434" font-family="Inter, sans-serif" font-size="13" fill="#D4CFC5" text-anchor="middle">Full iced-out sets</text>

  <line x1="650" y1="444" x2="1100" y2="444" stroke="#2C2C2C" stroke-width="1"/>

  <text x="670" y="472" font-family="Inter, sans-serif" font-size="13" fill="#8E9196">Verdict:</text>
  <rect x="870" y="455" width="170" height="28" rx="14" fill="#B89778" fill-opacity="0.2" stroke="#B89778" stroke-width="1"/>
  <text x="955" y="474" font-family="Inter, sans-serif" font-size="13" font-weight="600" fill="#B89778" text-anchor="middle">Worth it full set</text>

  <!-- VS divider -->
  <text x="600" y="300" font-family="'Cormorant Garamond', Georgia, serif" font-size="28" fill="#B89778" text-anchor="middle" opacity="0.5">vs</text>

  <!-- Note -->
  <text x="600" y="535" font-family="Inter, sans-serif" font-size="12" fill="#8E9196" text-anchor="middle">VVS costs ~$4,500 more than VS on a full set · Difference subtle on single tooth or top 6 · Source: Al-Asali Jewelry Studio, Toronto 2026</text>

  <!-- Footer -->
  <rect x="0" y="570" width="1200" height="30" fill="#0D0B0A"/>
  <line x1="0" y1="570" x2="1200" y2="570" stroke="#B89778" stroke-width="0.8" opacity="0.5"/>
  <text x="600" y="589" font-family="Inter, sans-serif" font-size="11" fill="#8E9196" text-anchor="middle" letter-spacing="1.5">AL-ASALI CUSTOM JEWELRY  ·  alasalicustomjewelry.ca</text>
</svg>
