<svg xmlns="http://www.w3.org/2000/svg" viewBox="0 0 64 64" fill="none" stroke="#1a1a1a" stroke-width="2" stroke-linecap="round" stroke-linejoin="round">
  <!-- Chain necklace draped shape - similar to rings icon style -->
  <path d="M8 10 Q8 28 20 36 Q28 42 32 48 Q36 42 44 36 Q56 28 56 10" />
  <!-- Chain link details along the path -->
  <ellipse cx="12" cy="17" rx="3" ry="2" transform="rotate(-20 12 17)" fill="#1a1a1a" opacity="0.06"/>
  <ellipse cx="18" cy="27" rx="3" ry="2" transform="rotate(-35 18 27)" fill="#1a1a1a" opacity="0.06"/>
  <ellipse cx="25" cy="35" rx="3" ry="2" transform="rotate(-50 25 35)" fill="#1a1a1a" opacity="0.06"/>
  <ellipse cx="32" cy="42" rx="3" ry="2" fill="#1a1a1a" opacity="0.06"/>
  <ellipse cx="39" cy="35" rx="3" ry="2" transform="rotate(50 39 35)" fill="#1a1a1a" opacity="0.06"/>
  <ellipse cx="46" cy="27" rx="3" ry="2" transform="rotate(35 46 27)" fill="#1a1a1a" opacity="0.06"/>
  <ellipse cx="52" cy="17" rx="3" ry="2" transform="rotate(20 52 17)" fill="#1a1a1a" opacity="0.06"/>
  <!-- Clasp detail at top -->
  <circle cx="32" cy="8" r="3" />
  <line x1="29" y1="8" x2="26" y2="10" />
  <line x1="35" y1="8" x2="38" y2="10" />
  <!-- Small accent gems -->
  <circle cx="12" cy="17" r="1" fill="#1a1a1a" opacity="0.2"/>
  <circle cx="52" cy="17" r="1" fill="#1a1a1a" opacity="0.2"/>
  <circle cx="32" cy="42" r="1.5" fill="#1a1a1a" opacity="0.2"/>
</svg>