<svg xmlns="http://www.w3.org/2000/svg" viewBox="0 0 64 64" fill="none" stroke="#1a1a1a" stroke-width="2" stroke-linecap="round" stroke-linejoin="round">
  <!-- Left earring -->
  <!-- Hook -->
  <path d="M16 8 Q10 8 10 14 Q10 20 16 20" />
  <!-- Drop connector -->
  <line x1="16" y1="20" x2="16" y2="26" />
  <!-- Teardrop gem -->
  <path d="M16 26 Q10 32 16 44 Q22 32 16 26 Z" fill="#1a1a1a" opacity="0.06"/>
  <path d="M16 30 Q13 34 16 40 Q19 34 16 30 Z" fill="#1a1a1a" opacity="0.08"/>
  <!-- Post dot -->
  <circle cx="16" cy="8" r="1.5" fill="#1a1a1a"/>

  <!-- Right earring -->
  <!-- Hook -->
  <path d="M48 8 Q54 8 54 14 Q54 20 48 20" />
  <!-- Drop connector -->
  <line x1="48" y1="20" x2="48" y2="26" />
  <!-- Teardrop gem -->
  <path d="M48 26 Q42 32 48 44 Q54 32 48 26 Z" fill="#1a1a1a" opacity="0.06"/>
  <path d="M48 30 Q45 34 48 40 Q51 34 48 30 Z" fill="#1a1a1a" opacity="0.08"/>
  <!-- Post dot -->
  <circle cx="48" cy="8" r="1.5" fill="#1a1a1a"/>

  <!-- Sparkle between -->
  <line x1="32" y1="14" x2="32" y2="10" />
  <line x1="30" y1="12" x2="34" y2="12" />
</svg>