<svg xmlns="http://www.w3.org/2000/svg" viewBox="0 0 64 64" fill="none" stroke="#1a1a1a" stroke-width="2" stroke-linecap="round" stroke-linejoin="round">
  <!-- Upper lip curve -->
  <path d="M8 24 Q20 18 32 22 Q44 18 56 24" />
  <!-- Gum line -->
  <path d="M10 26 Q20 22 32 24 Q44 22 54 26" fill="#1a1a1a" opacity="0.04"/>
  <!-- Teeth row - grillz -->
  <path d="M12 26 L12 38 Q14 40 16 38 L16 26" fill="#1a1a1a" opacity="0.06"/>
  <path d="M18 25 L18 40 Q20 42 22 40 L22 25" fill="#1a1a1a" opacity="0.06"/>
  <path d="M24 24 L24 42 Q26 44 28 42 L28 24" fill="#1a1a1a" opacity="0.06"/>
  <!-- Center teeth (fangs) -->
  <path d="M30 24 L30 44 Q32 46 34 44 L34 24" fill="#1a1a1a" opacity="0.08"/>
  <path d="M36 24 L36 42 Q38 44 40 42 L40 24" fill="#1a1a1a" opacity="0.06"/>
  <path d="M42 25 L42 40 Q44 42 46 40 L46 25" fill="#1a1a1a" opacity="0.06"/>
  <path d="M48 26 L48 38 Q50 40 52 38 L52 26" fill="#1a1a1a" opacity="0.06"/>
  <!-- Diamond accents on teeth -->
  <polygon points="32,30 34,33 32,36 30,33" fill="#1a1a1a" opacity="0.15"/>
  <circle cx="21" cy="32" r="1.2" fill="#1a1a1a" opacity="0.15"/>
  <circle cx="43" cy="32" r="1.2" fill="#1a1a1a" opacity="0.15"/>
  <!-- Sparkle -->
  <line x1="50" y1="16" x2="50" y2="12" />
  <line x1="48" y1="14" x2="52" y2="14" />
</svg>